<?xml version="1.0" encoding="UTF-8"?>
<svg id="Layer_2" data-name="Layer 2" xmlns="http://www.w3.org/2000/svg" viewBox="0 0 100 70">
  <defs>
    <style>
      .cls-1 {
        fill: none;
      }

      .cls-2 {
        fill: #000;
      }
    </style>
  </defs>
  <g id="Layer_1-2" data-name="Layer 1">
    <g id="Amex_w_1:1" data-name="Amex w 1:1">
      <rect id="Rechteck_1684" data-name="Rechteck 1684" class="cls-1" width="100" height="70"/>
      <rect id="Rechteck_1685" data-name="Rechteck 1685" class="cls-1" x="25" width="51" height="70"/>
      <rect id="Rechteck_1686" data-name="Rechteck 1686" class="cls-1" x="15.5" y="9.5" width="70" height="51"/>
      <g id="Gruppe_2533" data-name="Gruppe 2533">
        <path id="Pfad_3417" data-name="Pfad 3417" class="cls-2" d="m80.88,38.29l.79-1.77h-4.17c-1.35-.15-2.57.82-2.72,2.17-.01.1-.02.2-.01.31-.08,1.22.85,2.28,2.08,2.35.13,0,.26,0,.38,0h1.87c.36-.03.68.23.71.59,0,.02,0,.04,0,.07,0,.36-.28.64-.64.65-.02,0-.05,0-.07,0h-4.09v1.77h4.07c1.36.15,2.58-.84,2.72-2.19.01-.12.02-.24.01-.37.07-1.19-.84-2.21-2.03-2.28-.14,0-.29,0-.43.02h-1.87c-.36.03-.68-.23-.71-.59,0-.02,0-.04,0-.07,0-.35.28-.64.64-.65.02,0,.05,0,.07,0h3.41Zm-11.34.64c0-.35.28-.64.64-.65.02,0,.05,0,.07,0h3.4l.79-1.77h-4.16c-1.35-.15-2.57.82-2.72,2.17-.01.1-.02.2-.01.31-.08,1.22.85,2.28,2.08,2.35.13,0,.26,0,.38,0h1.87c.36-.03.68.23.71.59,0,.02,0,.04,0,.07,0,.35-.28.64-.64.65-.02,0-.05,0-.07,0h-4.1v1.77h4.07c1.36.15,2.58-.84,2.72-2.2.01-.12.02-.24.01-.36.07-1.19-.84-2.21-2.03-2.28-.14,0-.29,0-.43.02h-1.87c-.36.03-.68-.23-.71-.59,0-.02,0-.04,0-.07h0Zm-9.09,5.48h6.43v-1.77h-4.43v-1.34h4.33v-1.72h-4.32v-1.28h4.42v-1.77h-6.43v7.89h0Zm-.32,0l-2.56-2.88c1.21-.19,2.09-1.25,2.07-2.47.04-1.37-1.04-2.52-2.41-2.56-.11,0-.22,0-.32.01h-4.39v7.89h2v-2.8h.78l2.36,2.8h2.47Zm-3.43-4.51h-2.18v-1.61h2.18c.45-.06.87.26.92.71,0,.03,0,.07,0,.1,0,.45-.32.8-.93.8Zm-5.04-.72c.07-1.4-1-2.59-2.4-2.67-.11,0-.22,0-.34,0h-4.44v7.89h2v-2.57h2.37c1.43.11,2.68-.96,2.79-2.39,0-.09,0-.18,0-.27h0Zm-2.01.01c.02.47-.34.86-.81.88-.04,0-.08,0-.12,0h-2.24v-1.78h2.23c.47-.04.89.31.93.79,0,.04,0,.08,0,.11h0Zm-5.34,5.22l-3.17-3.98,3.15-3.91h-2.45l-1.86,2.42-1.86-2.42h-2.52l3.16,3.96-3.15,3.93h2.45l1.86-2.45,1.87,2.45h2.52Zm-15.29,0h6.43v-1.77h-4.43v-1.34h4.32v-1.72h-4.32v-1.28h4.43v-1.77h-6.43v7.89h0Z"/>
        <path id="Pfad_3418" data-name="Pfad 3418" class="cls-2" d="m80.63,33.84v-7.89h-1.99v4.89l-3.15-4.89h-2.54v7.89h2v-5.07l3.25,5.07h2.43Zm-10.15,0h2.26l-3.38-7.89h-2.6l-3.38,7.89h2.21l.65-1.61h3.59l.66,1.61h0Zm-1.36-3.33h-2.19l1.09-2.71,1.09,2.71h0Zm-6.46-2.74h2.12v-1.83h-2.27c-1.98-.13-3.69,1.36-3.82,3.34-.01.18-.01.37,0,.55v.11c0,2.42,1.4,3.89,3.66,3.89h.16l.82-1.77h-.65c-1.04.07-1.94-.71-2.01-1.74,0-.13,0-.25.01-.38v-.11c-.11-1.02.63-1.94,1.65-2.06.1-.01.21-.01.31,0h0Zm-6.94,6.07h2v-7.89h-2v7.89h0Zm-.32,0l-2.56-2.88c1.21-.19,2.09-1.25,2.07-2.47.04-1.37-1.04-2.52-2.41-2.56-.11,0-.22,0-.32.01h-4.39v7.89h2v-2.8h.78l2.36,2.8h2.47Zm-3.43-4.51h-2.18v-1.61h2.18c.45-.06.86.26.92.71,0,.03,0,.07,0,.1,0,.45-.32.8-.93.8h0Zm-11.75,4.51h6.43v-1.77h-4.43v-1.34h4.32v-1.72h-4.32v-1.28h4.43v-1.77h-6.43v7.89h0Zm-3.31,0h1.98v-7.89h-3.15l-1.76,5.04-1.77-5.04h-3.18v7.89h1.98v-5.84l2.08,5.84h1.75l2.08-5.84v5.84h0Zm-10.36,0h2.26l-3.38-7.89h-2.6l-3.38,7.89h2.21l.65-1.61h3.59l.66,1.61h0Zm-1.36-3.33h-2.19l1.09-2.71,1.09,2.71h0Z"/>
      </g>
    </g>
  </g>
</svg>
