<svg width="76" height="45" viewBox="0 0 76 45" fill="none" xmlns="http://www.w3.org/2000/svg" stroke="inherit">
<path d="M74 2H2V43H74V2Z" fill="white" stroke="inherit" stroke-width="3" stroke-linecap="round" stroke-linejoin="round"/>
<path d="M38 33C43.5228 33 48 28.299 48 22.5C48 16.701 43.5228 12 38 12C32.4772 12 28 16.701 28 22.5C28 28.299 32.4772 33 38 33Z" stroke="inherit" stroke-width="3" stroke-linecap="round" stroke-linejoin="round"/>
<path d="M74 15C70.7522 14.4495 67.7561 12.9025 65.4268 10.5732C63.0975 8.24391 61.5505 5.24778 61 2" stroke="inherit" stroke-width="3" stroke-linecap="round" stroke-linejoin="round"/>
<path d="M61 43C61.5505 39.7522 63.0975 36.7561 65.4268 34.4268C67.7561 32.0975 70.7522 30.5505 74 30" stroke="inherit" stroke-width="3" stroke-linecap="round" stroke-linejoin="round"/>
<path d="M2 30C5.24778 30.5505 8.24391 32.0975 10.5732 34.4268C12.9025 36.7561 14.4495 39.7522 15 43" stroke="inherit" stroke-width="3" stroke-linecap="round" stroke-linejoin="round"/>
<path d="M15 2C14.4495 5.24778 12.9025 8.24391 10.5732 10.5732C8.24391 12.9025 5.24778 14.4495 2 15" stroke="inherit" stroke-width="3" stroke-linecap="round" stroke-linejoin="round"/>
</svg>
