<?xml version="1.0"?>
<svg width="24" height="24" xmlns="http://www.w3.org/2000/svg" xmlns:svg="http://www.w3.org/2000/svg">
 <g class="layer">
  <title>Layer 1</title>
  <path clip-rule="evenodd" d="m19.97,6.31c0.58,-0.59 0.58,-1.54 0,-2.13c-0.59,-0.59 -1.55,-0.59 -2.14,0l-5.71,5.72l-5.71,-5.72c-0.59,-0.59 -1.55,-0.59 -2.14,0c-0.58,0.59 -0.58,1.54 0,2.13l5.72,5.72l-5.72,5.71c-0.58,0.59 -0.58,1.55 0,2.13c0.59,0.59 1.55,0.59 2.14,0l5.71,-5.71l5.71,5.71c0.59,0.59 1.55,0.59 2.14,0c0.58,-0.58 0.58,-1.54 0,-2.13l-5.72,-5.71l5.72,-5.72z" fill="white" fill-rule="evenodd" id="svg_1"/>
 </g>
</svg>