<svg width="85" height="63" viewBox="0 0 85 63" fill="none" xmlns="http://www.w3.org/2000/svg" stroke="inherit">
<g filter="url(#filter0_d_583_14714)">
<path d="M76.8333 4H8.83333C7.26853 4 6 5.26853 6 6.83333V52.1667C6 53.7315 7.26853 55 8.83333 55H76.8333C78.3981 55 79.6667 53.7315 79.6667 52.1667V6.83333C79.6667 5.26853 78.3981 4 76.8333 4Z" fill="white"/>
<path d="M76.8333 4H8.83333C7.26853 4 6 5.26853 6 6.83333V52.1667C6 53.7315 7.26853 55 8.83333 55H76.8333C78.3981 55 79.6667 53.7315 79.6667 52.1667V6.83333C79.6667 5.26853 78.3981 4 76.8333 4Z" stroke="inherit" stroke-width="3" stroke-linecap="round" stroke-linejoin="round"/>
</g>
<path d="M57 43.6667H68.3333" stroke="inherit" stroke-width="3" stroke-linecap="round" stroke-linejoin="round"/>
<path d="M39.9995 43.6667H45.6662" stroke="inherit" stroke-width="3" stroke-linecap="round" stroke-linejoin="round"/>
<path d="M6 18.1668H79.6667" stroke="inherit" stroke-width="3" stroke-linecap="round" stroke-linejoin="round"/>
<defs>
<filter id="filter0_d_583_14714" x="0.80303" y="0.651515" width="84.0607" height="61.3939" filterUnits="userSpaceOnUse" color-interpolation-filters="sRGB">
<feFlood flood-opacity="0" result="BackgroundImageFix"/>
<feColorMatrix in="SourceAlpha" type="matrix" values="0 0 0 0 0 0 0 0 0 0 0 0 0 0 0 0 0 0 127 0" result="hardAlpha"/>
<feOffset dy="1.84848"/>
<feGaussianBlur stdDeviation="1.84848"/>
<feComposite in2="hardAlpha" operator="out"/>
<feColorMatrix type="matrix" values="0 0 0 0 0.243137 0 0 0 0 0.407843 0 0 0 0 0.94902 0 0 0 0.2 0"/>
<feBlend mode="normal" in2="BackgroundImageFix" result="effect1_dropShadow_583_14714"/>
<feBlend mode="normal" in="SourceGraphic" in2="effect1_dropShadow_583_14714" result="shape"/>
</filter>
</defs>
</svg>
