<svg width="85" height="66" viewBox="0 0 85 66" fill="inherit" xmlns="http://www.w3.org/2000/svg" stroke="inherit">
<path d="M17 64H5C4.20435 64 3.44129 63.6839 2.87868 63.1213C2.31607 62.5587 2 61.7956 2 61V46C2 45.2044 2.31607 44.4413 2.87868 43.8787C3.44129 43.3161 4.20435 43 5 43H17" fill="white"/>
<path fill-rule="evenodd" clip-rule="evenodd" d="M5 44.5C4.60217 44.5 4.22064 44.658 3.93934 44.9393C3.65804 45.2206 3.5 45.6022 3.5 46V61C3.5 61.3978 3.65804 61.7794 3.93934 62.0607C4.22064 62.342 4.60217 62.5 5 62.5H17C17.8284 62.5 18.5 63.1716 18.5 64C18.5 64.8284 17.8284 65.5 17 65.5H5C3.80653 65.5 2.66194 65.0259 1.81802 64.182C0.974105 63.3381 0.5 62.1935 0.5 61V46C0.5 44.8065 0.974105 43.6619 1.81802 42.818C2.66194 41.9741 3.80653 41.5 5 41.5H17C17.8284 41.5 18.5 42.1716 18.5 43C18.5 43.8284 17.8284 44.5 17 44.5H5Z" fill="inherit"/>
<path d="M39.9565 46.5455H51.4348L75.4674 40.9418C82.2224 39.0652 85.9314 49.01 79.7072 52.16L65.7826 58.1818L42.8261 64H17V43.6364L25.9674 34.5455C27.5704 32.926 29.8021 31.9944 32.0652 32H50C53.9489 32 57.1739 35.3535 57.1739 39.2727C57.1739 43.192 53.9489 46.5455 50 46.5455H39.9565Z" fill="white" stroke="inherit" stroke-width="3" stroke-linecap="round" stroke-linejoin="round"/>
<path d="M56.8545 18.1839C55.1069 18.9642 53.1396 19.1928 51.2437 18.8359C49.3477 18.479 47.6238 17.5556 46.3269 16.2022C45.03 14.8489 44.2289 13.1375 44.0421 11.3211C43.8554 9.50471 44.2929 7.67982 45.2899 6.11632C46.2869 4.55281 47.7906 3.33372 49.5784 2.63935C51.3662 1.94498 53.3434 1.81219 55.2173 2.26063C57.0913 2.70907 58.7627 3.71493 59.9842 5.12943C61.2056 6.54393 61.9124 8.29197 62 10.115" fill="white"/>
<path d="M56.8545 18.1839C55.1069 18.9642 53.1396 19.1928 51.2437 18.8359C49.3477 18.479 47.6238 17.5556 46.3269 16.2022C45.03 14.8489 44.2289 13.1375 44.0421 11.3211C43.8554 9.50471 44.2929 7.67982 45.2899 6.11632C46.2869 4.55281 47.7906 3.33372 49.5784 2.63935C51.3662 1.94498 53.3434 1.81219 55.2173 2.26063C57.0913 2.70907 58.7627 3.71493 59.9842 5.12943C61.2056 6.54393 61.9124 8.29197 62 10.115" stroke="inherit" fill="white" stroke-width="3" stroke-linecap="round" stroke-linejoin="round"/>
<path d="M66.5 26C71.1944 26 75 22.1944 75 17.5C75 12.8056 71.1944 9 66.5 9C61.8056 9 58 12.8056 58 17.5C58 22.1944 61.8056 26 66.5 26Z" fill="white" stroke="inherit" stroke-width="3" stroke-linecap="round" stroke-linejoin="round"/>
</svg>
