<svg width="47" height="16" viewBox="0 0 47 16" fill="none" xmlns="http://www.w3.org/2000/svg">
<path d="M36.4324 15.3512L45.9643 8.38558C46.3132 8.13063 46.3132 7.60995 45.9643 7.355L36.4324 0.389403C36.2685 0.269619 36.0465 0.171403 35.7859 0.103473C35.5254 0.0355426 35.2344 -5.87628e-08 34.9389 0H1.79498C1.31892 0 0.862361 0.0921323 0.525738 0.256129C0.189114 0.420125 0 0.642552 0 0.874477V14.8661C0 15.098 0.189114 15.3205 0.525738 15.4845C0.862361 15.6484 1.31892 15.7406 1.79498 15.7406H34.9389C35.2344 15.7406 35.5254 15.705 35.7859 15.6371C36.0464 15.5692 36.2685 15.471 36.4324 15.3512Z" fill="#1DBA57"/>
</svg>
