<svg width="24" height="24" viewBox="0 0 24 24" fill="none" xmlns="http://www.w3.org/2000/svg">
<path fill-rule="evenodd" clip-rule="evenodd" d="M4.84528 1.83367C5.30755 1.3714 6.05704 1.3714 6.51931 1.83367L13.9507 9.26502C15.1962 10.5105 15.2969 12.4966 14.1838 13.8617L6.5997 23.1629C6.18657 23.6696 5.44092 23.7454 4.93425 23.3323C4.42759 22.9192 4.35176 22.1735 4.76489 21.6668L12.349 12.3656C12.6944 11.942 12.6632 11.3256 12.2766 10.9391L4.84528 3.50771C4.383 3.04544 4.383 2.29594 4.84528 1.83367Z" fill="white"/>
<path d="M20.4184 4.98107C20.4184 6.85707 18.8976 8.37787 17.0216 8.37787C15.1456 8.37787 13.6248 6.85707 13.6248 4.98107C13.6248 3.10507 15.1456 1.58427 17.0216 1.58427C18.8976 1.58427 20.4184 3.10507 20.4184 4.98107Z" fill="white"/>
</svg>
